<svg xmlns="http://www.w3.org/2000/svg" height="800" width="1200" viewBox="-70.35603 -17.7194 609.75226 106.3164"><g fill="#800033"><path d="M0 1.7796h32.3876v21.9976h.2109L57.2953 1.7796h36.3089L63.8146 28.7583l34.4661 37.02H57.2953L32.5985 39.5816h-.2109v26.1967H0zm145.0744 52.8977c14.4052 0 13.4538-16.0698 13.4538-21.3765 0-5.3067.1598-20.0317-13.4538-20.0317-13.6193 0-13.4565 14.725-13.4565 20.0317 0 5.3067-.9598 21.3765 13.4565 21.3765m0-54.6773c36.7739 0 46.777 7.7111 46.777 33.9718 0 26.2635-10.0031 33.9728-46.777 33.9728-36.7785 0-46.779-7.7093-46.779-33.9728C98.2955 7.7111 108.296 0 145.0745 0m116.6227 41.7449v24.4632h33.2502V2.2151h-33.2502v21.9948h-23.8555V2.215H204.585v63.993h33.2567V41.7449zm48.972-39.5301h34.0223v48.7618s27.1554.078 30.7631.078c3.6133 0 5.7454-3.2382 5.7454-3.2382V66.208h-70.5308V2.2149zm149.8583 21.1856c-7.039-5.6332-13.071-7.5267-19.558-7.632-6.34-.11-12.1307 2.0948-12.1307 5.9532 0 3.0462 4.329 4.3082 19.473 7.4636 12.4413 2.604 20.7284 8.958 20.7284 20.7883 0 13.3539-22.2161 20.9041-42.0866 20.9041-13.9503 0-24.659-2.5117-34.2423-6.8115V46.1434c5.923 6.179 19.176 9.4606 29.329 9.4606 5.6326 0 8.3962-.8272 8.3962-5.3077 0-2.7733-3.5116-5.302-14.1444-7.249-20.145-3.691-26.9529-9.4579-26.9529-19.3175 0-14.1603 17.608-22.5886 39.3055-22.5886 11.6961 0 22.4371.3614 31.8828 4.7534z"/><path d="M362.2616 28.3208l2.33-4.1106c-7.0121-3.4678-9.0805-12.2904-5.519-17.3214 3.8297-5.414 14.4644-7.7337 20.207.6465 4.8903 7.1503.211 13.207-1.913 14.9424-2.1228 1.7325-15.105 5.8431-15.105 5.8431"/></g></svg>